<svg version="1.2" xmlns="http://www.w3.org/2000/svg" viewBox="0 0 200 200" width="50" height="50">
	<title>CrafTea Logo-svg</title>
	<style>
		.s0 { fill: none;stroke: #e4e8e8;stroke-width: 2 } 
		.s1 { fill: none;stroke: #7f878b;stroke-width: 2 } 
		.s2 { fill: none;stroke: #a4abab;stroke-width: 2 } 
		.s3 { fill: none;stroke: #657175;stroke-width: 2 } 
		.s4 { fill: none;stroke: #253438;stroke-width: 2 } 
		.s5 { fill: none;stroke: #899495;stroke-width: 2 } 
		.s6 { fill: #fefefe } 
		.s7 { fill: #001018 } 
		.s8 { fill: #c9d1d2 } 
		.s9 { fill: #495758 } 
		.s10 { fill: #fefcff } 
		.s11 { fill: #ffffff } 
	</style>
	<g id="Layer">
		<path id="Layer" fill-rule="evenodd" class="s0" d="m206.3 93.7l-19.5-15.4"/>
		<path id="Layer" fill-rule="evenodd" class="s1" d="m186.8 78.3l-59-34.1q-0.1-0.1-0.4-0.1-0.2-0.1-0.4-0.1-0.2 0-0.4 0.1-0.2 0-0.4 0.1l-56.8 33.2q-0.6 0.3-0.6 0.9l0.2 29.4q0 0.2 0 0.3 0.1 0.1 0.2 0.1 0.2 0 0.3 0 0.1-0.1 0.1-0.2l5.2-9q0.2-0.5 0.7-0.2l18 10.3q0.1 0.1 0.2 0.2 0.1 0.1 0.1 0.2 0.1 0.1 0.1 0.2 0.1 0.1 0 0.2l-0.2 17.6"/>
		<path id="Layer" fill-rule="evenodd" class="s0" d="m93.7 127.4c-3.5 0.3-3.3-4.3-7.5-3.7"/>
		<path id="Layer" fill-rule="evenodd" class="s1" d="m86.2 123.7c-6.2-8.2-17.4-7.3-17.4 4.6q0.1 9 0.1 18.1c0 2.7 1 4 3.2 5.3q3.5 1.9 12.7 7.7c4.7 3.1 9.8 0.8 13.9-2.1 5.5-3.9 3.9-7.8 4.4-13.9q0-0.5 0.5-0.3l14.5 8.6q0.1 0.1 0.2 0.1 0.1 0.1 0.2 0.2 0 0.1 0.1 0.3 0 0.1 0 0.2 0.4 11.8 0.1 17.8c-0.2 2.7-4.2 3.7-5 1q-1.3-4.1-2.3-5.4"/>
		<path id="Layer" fill-rule="evenodd" class="s2" d="m111.4 165.9q-2.5-1.1-4.9-2.7-1-0.6-2.1-0.3-4.1 1.5-7.5 3.1"/>
		<path id="Layer" fill-rule="evenodd" class="s1" d="m96.9 166q-0.8 0.7 0.9 1.7 13.6 8.6 28.8 18"/>
		<path id="Layer" fill-rule="evenodd" class="s0" d="m126.6 185.7l6.5 5"/>
		<path id="Layer" fill-rule="evenodd" class="s3" d="m186.8 78.3l-0.1 68.7q0 0.5-0.1 1-0.1 0.5-0.4 1-0.2 0.5-0.6 0.9-0.4 0.4-0.8 0.6-5.9 3.7-12.1 7.2c-5.4 3.1-11.3-3.5-5-7.5q4.8-3 9.9-5.9 0.1-0.1 0.2-0.2 0.1-0.1 0.1-0.2 0.1-0.1 0.1-0.2 0.1-0.1 0.1-0.2l-0.1-15.3q0-0.7-0.6-0.3l-40.2 23.3q-0.5 0.3-0.5 0.8l0.1 16.7q0 0.1 0 0.2 0 0 0.1 0.1 0.1 0 0.2 0 0 0 0.1 0 7.9-4.5 15.6-9.1c6.1-3.6 11.4 3.9 4.4 8q-15.6 9.1-30.6 17.8"/>
		<path id="Layer" fill-rule="evenodd" class="s4" d="m96.9 166l6.2 3.2q0.1 0.1 0.2 0.1 0.1 0.1 0.3 0.1 0.1 0 0.2-0.1 0.1 0 0.3 0l7.3-3.4"/>
		<path id="Layer" fill-rule="evenodd" class="s3" d="m86.2 123.7q1.1 2.1 2.4 4 1.2 2 5.1-0.3"/>
		<path id="Layer" fill-rule="evenodd" class="s0" d="m57.3 120.6q3.3 3.7 7.7 5.7 0.3 0.1 0.6 0.2 0.4 0 0.7-0.2 0.4-0.1 0.6-0.4 0.2-0.3 0.3-0.6l1.6-4.9q0.2-0.5-0.1-0.9-2.2-4.2-5.5-4.9"/>
		<path id="Layer" fill-rule="evenodd" class="s1" d="m63.2 114.6q-1.2-3.2-3.9-3.8c-6.5-1.2-8.3 7.9-1.9 9.8"/>
		<path id="Layer" fill-rule="evenodd" class="s3" d="m63.2 114.6q-0.2 5.9-5.8 6"/>
		<path id="Layer" fill-rule="evenodd" class="s0" d="m62.9 133.7q0.4-0.4 0.7-1 0.2-0.6 0.2-1.3-0.1-0.7-0.3-1.3-0.3-0.7-0.8-1.2-0.5-0.5-1.1-0.8-0.7-0.3-1.4-0.4-0.6 0-1.3 0.2-0.6 0.2-1 0.7-0.5 0.4-0.7 1-0.3 0.6-0.2 1.3 0 0.7 0.3 1.3 0.3 0.7 0.8 1.2 0.5 0.5 1.1 0.8 0.6 0.3 1.3 0.4 0.7 0 1.3-0.2 0.6-0.2 1.1-0.7z"/>
		<path id="Layer" fill-rule="evenodd" class="s1" d="m168.3 78.5q0.1 0 0.2-0.1 0-0.1 0-0.2 0-0.2 0-0.3-0.1-0.1-0.2-0.1l-40.9-23.7q0-0.1-0.1-0.1 0 0-0.1 0-0.1 0-0.1 0-0.1 0-0.1 0.1l-40.9 23.7q-0.1 0-0.1 0.1-0.1 0.1-0.1 0.3 0 0.1 0.1 0.2 0 0.1 0.1 0.1l41 23.8q0.1 0 0.1 0.1 0.1 0 0.2 0 0 0 0.1 0 0-0.1 0.1-0.1z"/>
		<path id="Layer" fill-rule="evenodd" class="s3" d="m161.6 126.3q0 0.1 0.1 0.1 0 0.1 0.1 0.2 0.1 0 0.1 0 0.1 0 0.2 0l15.8-9.2q0.1 0 0.1-0.1 0 0 0.1 0 0-0.1 0-0.1 0 0 0-0.1v-17.5q0-0.1-0.1-0.2 0 0-0.1-0.1-0.1 0-0.1 0-0.1 0-0.2 0l-15.8 9.4q0 0-0.1 0 0 0.1 0 0.1 0 0 0 0.1-0.1 0-0.1 0z"/>
		<path id="Layer" fill-rule="evenodd" class="s3" d="m152.9 114.9q0-0.2-0.1-0.3 0-0.1-0.1-0.1-0.2-0.1-0.3-0.1-0.1 0-0.2 0.1l-15.3 8.8q0 0.1-0.1 0.1 0 0.1 0 0.1-0.1 0.1-0.1 0.1 0 0.1 0 0.1v16.9q0 0.1 0.1 0.2 0.1 0.1 0.2 0.2 0.1 0 0.2 0 0.1 0 0.2 0l15.3-9.1q0 0 0.1-0.1 0 0 0-0.1 0.1 0 0.1-0.1 0 0 0-0.1z"/>
		<path id="Layer" fill-rule="evenodd" class="s1" d="m103 131.8q0 0.1 0 0.1 0 0 0 0.1 0.1 0 0.1 0 0 0.1 0.1 0.1l15.1 8.8q0 0.1 0.1 0.1 0.1 0 0.2-0.1 0 0 0.1-0.1 0-0.1 0-0.1v-16.7q0-0.1 0-0.1-0.1 0-0.1-0.1 0 0-0.1 0l-15-8.8q-0.1-0.1-0.2-0.1-0.1 0-0.2 0.1 0 0-0.1 0.1 0 0.1 0 0.2z"/>
		<path id="Layer" fill-rule="evenodd" class="s1" d="m93.5 137.7l-14.3-8.4q-0.1-0.1-0.3-0.1-0.1 0-0.2 0.1-0.1 0.1-0.2 0.2-0.1 0.1-0.1 0.3l-0.1 13.8q0 0.2 0.1 0.3 0 0.1 0.1 0.2 0 0.1 0.1 0.2 0.1 0 0.2 0.1 4.1 2.5 8.2 5c8.6 5.4 7.2-7.1 7-10.9q0-0.5-0.5-0.8z"/>
		<path id="Layer" fill-rule="evenodd" class="s5" d="m202.1 102.5q0-0.8-0.3-1.5-0.3-0.7-0.9-1.3-0.5-0.5-1.2-0.8-0.7-0.3-1.5-0.3-0.7 0-1.5 0.3-0.7 0.3-1.2 0.8-0.6 0.6-0.8 1.3-0.3 0.7-0.3 1.5 0 0.7 0.3 1.4 0.2 0.7 0.8 1.3 0.5 0.5 1.2 0.8 0.8 0.3 1.5 0.3 0.8 0 1.5-0.3 0.7-0.3 1.2-0.8 0.6-0.6 0.9-1.3 0.3-0.7 0.3-1.4z"/>
		<path id="Layer" fill-rule="evenodd" class="s3" d="m201.5 116.5q0-1-0.4-1.8-0.3-0.9-1-1.6-0.7-0.7-1.6-1-0.8-0.4-1.8-0.4-1 0-1.8 0.4-0.9 0.3-1.6 1-0.7 0.7-1 1.6-0.4 0.8-0.4 1.8 0 1 0.4 1.8 0.3 0.9 1 1.6 0.7 0.7 1.6 1 0.8 0.4 1.8 0.4 1 0 1.8-0.4 0.9-0.3 1.6-1 0.7-0.7 1-1.6 0.4-0.8 0.4-1.8z"/>
		<path id="Layer" fill-rule="evenodd" class="s3" d="m166.8 173.1q0-1-0.3-1.8-0.4-0.9-1.1-1.6-0.6-0.7-1.5-1-0.9-0.4-1.8-0.4-1 0-1.8 0.4-0.9 0.3-1.6 1-0.6 0.7-1 1.6-0.4 0.8-0.4 1.8 0 0.9 0.4 1.8 0.4 0.9 1 1.5 0.7 0.7 1.6 1.1 0.8 0.3 1.8 0.3 0.9 0 1.8-0.3 0.9-0.4 1.5-1.1 0.7-0.6 1.1-1.5 0.3-0.9 0.3-1.8z"/>
	</g>
	<path id="Layer" class="s6" d="m216.2 88q-2.6 2.6-4.5-0.1-3.8-11-6.5-15.6-15.5-27.2-43.4-39.4c-46.2-20.3-100.1 3.9-117.1 50.5-17.1 46.8 10.2 93.5 55.4 109q0.6 0.2 0.1 0.6l-3.1 2.5q-0.5 0.4-1.1 0.2c-47.9-18.1-73.5-68.2-54.3-116.7 11.3-28.4 36.9-49 66.4-55.5 47.3-10.5 94.2 18.8 108.1 64.5z"/>
	<path id="Layer" fill-rule="evenodd" class="s6" d="m206.2 93.7q0 0 0-0.1l0.1 0.1zm-19.4-15.4l-59-34.1q-0.1-0.1-0.4-0.1-0.2-0.1-0.4-0.1-0.2 0-0.4 0.1-0.2 0-0.4 0.1l-56.8 33.2q-0.6 0.3-0.6 1l0.2 29.3q0 0.2 0 0.3 0.1 0.1 0.2 0.1 0.2 0 0.3 0 0.1-0.1 0.1-0.2l5.2-9q0.2-0.5 0.7-0.2l18 10.3q0.1 0.1 0.2 0.2 0.1 0.1 0.1 0.2 0.1 0.1 0.1 0.2 0.1 0.1 0 0.2l-0.2 17.6c-3.5 0.3-3.3-4.3-7.5-3.7-6.2-8.2-17.4-7.3-17.4 4.6q0.1 9 0.1 18.1c0 2.7 0.9 4 3.2 5.3q3.5 1.9 12.7 7.7c4.7 3.1 9.7 0.8 13.9-2.1 5.5-3.9 3.9-7.8 4.4-13.9q0-0.5 0.5-0.3l14.5 8.6q0.1 0.1 0.2 0.1 0.1 0.1 0.2 0.2 0 0.1 0.1 0.3 0 0.1 0 0.2 0.4 11.8 0.1 17.8c-0.2 2.7-4.2 3.7-5.1 1q-1.2-4.1-2.2-5.4-2.5-1.1-4.9-2.7-1-0.6-2.1-0.3-4.1 1.5-7.5 3.1-0.8 0.7 0.9 1.7 13.6 8.6 28.8 18l6.5 5q-5.6 1.4-8.8 5.8-0.1 0.1-0.2 0.2-0.1 0.1-0.2 0.1-0.2 0-0.3-0.1-0.1-0.1-0.2-0.2c-2.3-3.1-4.6-4.7-8.6-5.9-30.3-9.3-56.7-26.6-65.5-58.6-12.3-44.8 17.8-89.9 63-98.3 41.8-7.8 83 18.5 93.9 59.9zm-129.4 42.3q3.3 3.7 7.7 5.7 0.3 0.1 0.6 0.2 0.4 0 0.7-0.2 0.4-0.1 0.6-0.4 0.2-0.3 0.3-0.6l1.6-4.9q0.2-0.5-0.1-0.9-2.2-4.2-5.5-4.9-1.2-3.2-4-3.8c-6.4-1.2-8.2 7.9-1.9 9.8zm5.6 13.1q0.4-0.4 0.7-1 0.2-0.6 0.2-1.3-0.1-0.7-0.3-1.3-0.3-0.7-0.8-1.2-0.5-0.5-1.1-0.8-0.7-0.3-1.4-0.4-0.6 0-1.3 0.2-0.6 0.2-1 0.7-0.5 0.4-0.7 1-0.3 0.6-0.2 1.3 0 0.7 0.3 1.3 0.3 0.7 0.8 1.2 0.5 0.5 1.1 0.8 0.6 0.3 1.3 0.4 0.7 0 1.3-0.2 0.6-0.2 1.1-0.7z"/>
	<path id="Layer" fill-rule="evenodd" class="s7" d="m186.8 78.3l-0.1 68.7q0 0.5-0.1 1-0.1 0.5-0.4 1-0.2 0.5-0.6 0.9-0.4 0.4-0.8 0.6-5.9 3.7-12.1 7.2c-5.4 3.1-11.3-3.5-5-7.5q4.8-3 9.9-5.9 0.1-0.1 0.2-0.2 0.1-0.1 0.1-0.2 0.1-0.1 0.1-0.2 0.1-0.1 0.1-0.2l-0.1-15.3q0-0.7-0.6-0.3l-40.2 23.3q-0.5 0.3-0.5 0.8l0.1 16.7q0 0.1 0 0.2 0 0 0.1 0.1 0.1 0 0.2 0 0 0 0.1 0 7.9-4.5 15.6-9.1c6.1-3.6 11.4 3.9 4.4 8q-15.6 9.1-30.6 17.8-15.2-9.5-28.8-18-1.7-1-0.9-1.7l6.2 3.2q0.1 0.1 0.2 0.1 0.1 0.1 0.3 0.1 0.1 0 0.2-0.1 0.1 0 0.3 0l7.3-3.4q1 1.3 2.2 5.4c0.9 2.7 4.9 1.7 5.1-1.1q0.3-5.9-0.1-17.7 0-0.1 0-0.2-0.1-0.2-0.1-0.3-0.1-0.1-0.2-0.2-0.1 0-0.2-0.1l-14.5-8.6q-0.5-0.3-0.5 0.3c-0.5 6.1 1.1 10-4.4 13.9-4.1 2.9-9.2 5.2-13.9 2.1q-9.2-5.8-12.7-7.7c-2.3-1.3-3.2-2.6-3.2-5.3q0-9.1-0.1-18.2c0-11.8 11.2-12.7 17.4-4.5q1.1 2.1 2.4 4 1.2 2 5.1-0.3l0.2-17.6q0.1-0.1 0-0.2 0-0.1-0.1-0.2 0-0.1-0.1-0.2-0.1-0.1-0.2-0.2l-17.9-10.3q-0.5-0.3-0.8 0.2l-5.2 9q0 0.1-0.1 0.2-0.1 0-0.3 0-0.1 0-0.2-0.1 0-0.1 0-0.3l-0.2-29.4q0-0.6 0.6-0.9l56.8-33.2q0.2-0.1 0.4-0.1 0.2-0.1 0.4-0.1 0.2 0 0.4 0.1 0.3 0 0.4 0.1zm-18.4 0.2q0.1 0 0.2-0.1 0-0.1 0-0.3 0-0.1 0-0.2-0.1-0.1-0.2-0.1l-40.9-23.7q-0.1-0.1-0.1-0.1-0.1 0-0.1 0-0.1 0-0.1 0-0.1 0-0.1 0.1l-40.9 23.7q-0.1 0-0.2 0.1 0 0.1 0 0.2 0 0.2 0 0.3 0.1 0.1 0.2 0.1l41 23.8q0.1 0 0.1 0.1 0.1 0 0.1 0 0.1 0 0.2 0 0-0.1 0.1-0.1zm-6.7 47.8q-0.1 0 0 0.1 0 0.1 0.1 0.1 0.1 0.1 0.2 0.1 0.1 0 0.1-0.1l15.9-9.1q0-0.1 0-0.1 0.1 0 0.1 0 0-0.1 0-0.1 0-0.1 0-0.1c0-0.1 0-17.6 0-17.7q-0.1 0-0.2-0.1 0 0-0.1 0-0.1 0-0.2 0l-15.8 9.4q-0.1 0-0.1 0.1 0 0.1 0 0.1zm-8.8-11.6q-0.1-0.1-0.2-0.2-0.1 0-0.2 0-0.1 0-0.3 0l-15.2 8.9q-0.1 0-0.1 0.1-0.1 0-0.1 0.1 0 0 0 0.1-0.1 0-0.1 0.1l0.1 16.8q0 0.1 0.1 0.2 0 0.2 0.1 0.2 0.1 0.1 0.3 0.1 0.1 0 0.2-0.1l15.2-9q0.1-0.1 0.1-0.1 0-0.1 0.1-0.1 0-0.1 0-0.1 0-0.1 0-0.1c0-0.1 0-16.8 0-16.9zm-49.8 17.1q0 0.1 0 0.1 0 0 0 0.1 0.1 0.1 0.1 0.1l15.1 8.8q0.1 0.1 0.2 0.1 0 0 0.1-0.1 0.1 0 0.1-0.1 0.1 0 0.1-0.1l-0.1-16.6q0-0.1 0-0.1 0-0.1 0-0.1 0 0 0-0.1-0.1 0-0.1 0l-15.1-8.8q-0.1 0-0.1 0-0.1 0-0.2 0-0.1 0-0.1 0.1-0.1 0.1-0.1 0.2zm-9.4 5.9l-14.4-8.4q-0.1-0.1-0.2-0.1-0.2 0-0.3 0.1-0.1 0-0.2 0.2-0.1 0.1 0 0.2l-0.1 13.9q0 0.1 0 0.2 0 0.1 0.1 0.2 0 0.1 0.1 0.2 0.1 0.1 0.2 0.1 4.1 2.5 8.3 5.1c8.6 5.4 7.1-7.1 7-10.9q-0.1-0.6-0.5-0.8z"/>
	<path id="Layer" class="s6" d="m168.3 78.5l-40.7 23.8q-0.1 0-0.1 0.1-0.1 0-0.1 0-0.1 0-0.2 0 0-0.1-0.1-0.1l-41-23.8q-0.1 0-0.1-0.1-0.1-0.1-0.1-0.2 0-0.2 0.1-0.3 0-0.1 0.1-0.1l40.9-23.7q0-0.1 0.1-0.1 0 0 0.1 0 0.1 0 0.1 0 0.1 0 0.1 0.1l40.9 23.7q0.1 0 0.2 0.1 0 0.1 0 0.3 0 0.1 0 0.2-0.1 0.1-0.2 0.1z"/>
	<path id="Layer" fill-rule="evenodd" class="s8" d="m186.8 78.3l19.4 15.4c5.6 24.9-0.4 50.8-17.8 69.5q-0.4 0.4-0.8 0.2c-2.7-1.2-5.7-2.6-8.5-1.6-6.5 2.1-1.8 12.3 0.4 17.6q0 0.2 0 0.3 0.1 0.1 0 0.2 0 0.1-0.1 0.2-0.1 0.1-0.2 0.2l-14.7 10.2q-0.1 0-0.2 0.1 0 0-0.1 0 0 0-0.1 0-0.1 0.1-0.2 0.1h-30.8l-6.5-5q15-8.7 30.6-17.8c7-4.1 1.7-11.6-4.4-8q-7.7 4.6-15.6 9.1-0.1 0-0.1 0-0.1 0-0.2 0-0.1-0.1-0.1-0.1 0-0.1 0-0.2l-0.1-16.7q0-0.5 0.5-0.8l40.2-23.3q0.6-0.3 0.6 0.3l0.1 15.3q0 0.1-0.1 0.2 0 0.1-0.1 0.2 0 0.1-0.1 0.2-0.1 0.1-0.2 0.2-5.1 2.9-9.9 5.9c-6.3 4-0.4 10.6 5 7.5q6.2-3.5 12.1-7.2 0.4-0.2 0.8-0.6 0.4-0.4 0.6-0.9 0.3-0.5 0.4-1 0.1-0.5 0.1-1zm15.4 24.1q0-0.8-0.3-1.5-0.3-0.7-0.9-1.2-0.5-0.6-1.2-0.9-0.7-0.3-1.5-0.3-0.8 0-1.5 0.3-0.7 0.3-1.2 0.9-0.6 0.5-0.9 1.2-0.3 0.7-0.3 1.5 0 0.8 0.3 1.5 0.3 0.7 0.9 1.2 0.5 0.6 1.2 0.9 0.7 0.3 1.5 0.3 0.8 0 1.5-0.3 0.7-0.3 1.2-0.9 0.6-0.5 0.9-1.2 0.3-0.7 0.3-1.5zm-0.6 14q0-0.9-0.4-1.8-0.4-0.9-1-1.5-0.7-0.7-1.6-1.1-0.9-0.3-1.8-0.3-1 0-1.9 0.3-0.8 0.4-1.5 1.1-0.7 0.6-1 1.5-0.4 0.9-0.4 1.8 0 1 0.4 1.9 0.3 0.9 1 1.5 0.7 0.7 1.5 1.1 0.9 0.3 1.9 0.3 0.9 0 1.8-0.3 0.9-0.4 1.6-1.1 0.6-0.6 1-1.5 0.4-0.9 0.4-1.9zm-34.7 56.6q0-0.9-0.3-1.8-0.4-0.9-1.1-1.5-0.6-0.7-1.5-1.1-0.9-0.3-1.8-0.3-1 0-1.8 0.3-0.9 0.4-1.6 1.1-0.7 0.6-1 1.5-0.4 0.9-0.4 1.8 0 1 0.4 1.8 0.3 0.9 1 1.6 0.7 0.6 1.6 1 0.8 0.4 1.8 0.4 0.9 0 1.8-0.4 0.9-0.4 1.5-1 0.7-0.7 1.1-1.6 0.3-0.8 0.3-1.8z"/>
	<path id="Layer" class="s8" d="m211.7 87.9q1.9 2.7 4.5 0.1 11.4 45.3-17.7 81-0.4 0.5-0.9 0.2l-2.8-1.5q-0.6-0.4-0.2-1 28.5-34.6 17.1-78.8z"/>
	<path id="Layer" class="s9" d="m198.2 106.3c-2.1 0-3.8-1.7-3.8-3.8 0-2.2 1.7-3.9 3.8-3.9 2.2 0 3.9 1.7 3.9 3.9 0 2.1-1.7 3.8-3.9 3.8z"/>
	<path id="Layer" class="s8" d="m161.6 126.3v-17.4q0 0 0.1 0 0-0.1 0-0.1 0 0 0-0.1 0.1 0 0.1 0l15.8-9.4q0.1 0 0.2 0 0 0 0.1 0 0.1 0.1 0.1 0.1 0.1 0.1 0.1 0.2v17.5q0 0.1 0 0.1 0 0 0 0.1-0.1 0-0.1 0 0 0.1-0.1 0.1l-15.8 9.2q-0.1 0-0.2 0 0 0-0.1 0-0.1-0.1-0.1-0.2-0.1 0-0.1-0.1z"/>
	<path id="Layer" class="s7" d="m63.2 114.6q-0.2 5.9-5.8 6c-6.4-1.9-4.6-11 1.9-9.8q2.7 0.6 3.9 3.8z"/>
	<path id="Layer" class="s7" d="m196.7 121.3c-2.6 0-4.8-2.2-4.8-4.8 0-2.6 2.2-4.8 4.8-4.8 2.6 0 4.8 2.2 4.8 4.8 0 2.6-2.2 4.8-4.8 4.8z"/>
	<path id="Layer" class="s8" d="m57.3 120.6q5.7-0.1 5.9-6 3.3 0.7 5.5 4.9 0.3 0.4 0.1 0.9l-1.6 4.9q-0.1 0.3-0.3 0.6-0.2 0.3-0.6 0.4-0.3 0.2-0.7 0.2-0.3-0.1-0.6-0.2-4.4-2-7.7-5.7z"/>
	<path id="Layer" class="s8" d="m152.9 114.9v16.6q0 0.1 0 0.1 0 0.1-0.1 0.1 0 0.1 0 0.1-0.1 0.1-0.1 0.1l-15.3 9.1q-0.1 0-0.2 0-0.1 0-0.2 0-0.1-0.1-0.2-0.2-0.1-0.1-0.1-0.2v-16.9q0 0 0-0.1 0 0 0.1-0.1 0 0 0-0.1 0.1 0 0.1-0.1l15.3-8.8q0.1-0.1 0.2-0.1 0.1 0 0.3 0.1 0.1 0 0.1 0.1 0.1 0.1 0.1 0.3z"/>
	<path id="Layer" class="s6" d="m103 131.8v-16.5q0-0.1 0-0.2 0.1-0.1 0.1-0.1 0.1-0.1 0.2-0.1 0.1 0 0.2 0.1l15 8.8q0.1 0 0.1 0 0 0.1 0.1 0.1 0 0 0 0.1 0 0 0 0.1v16.6q0 0 0 0.1-0.1 0.1-0.1 0.1-0.1 0.1-0.2 0.1-0.1 0-0.2-0.1l-15-8.8q-0.1 0-0.1-0.1 0 0-0.1 0 0-0.1 0-0.1 0 0 0-0.1z"/>
	<path id="Layer" class="s8" d="m93.7 127.4q-3.9 2.3-5.1 0.3-1.3-1.9-2.4-4c4.2-0.6 4 4 7.5 3.7z"/>
	<path id="Layer" class="s8" d="m58.1 133.4c-1.4-1.4-1.5-3.6-0.2-4.8 1.3-1.3 3.4-1.1 4.8 0.3 1.4 1.5 1.5 3.6 0.2 4.8-1.3 1.3-3.5 1.1-4.8-0.3z"/>
	<path id="Layer" class="s6" d="m79.2 129.3l14.3 8.4q0.5 0.3 0.5 0.8c0.2 3.8 1.6 16.3-7 10.9q-4.1-2.5-8.2-5-0.1-0.1-0.2-0.1-0.1-0.1-0.1-0.2-0.1-0.1-0.1-0.2-0.1-0.1-0.1-0.3l0.1-13.9q0-0.1 0.1-0.2 0.1-0.1 0.2-0.2 0.1-0.1 0.2-0.1 0.2 0 0.3 0.1z"/>
	<path id="Layer" class="s9" d="m111.4 165.9l-7.3 3.4q-0.2 0-0.3 0-0.1 0.1-0.2 0.1-0.2 0-0.3-0.1-0.1 0-0.2-0.1l-6.2-3.2q3.4-1.6 7.5-3.1 1.1-0.3 2.1 0.3 2.4 1.6 4.9 2.7z"/>
	<path id="Layer" class="s7" d="m162.1 177.8c-2.6 0-4.8-2.1-4.8-4.7 0-2.7 2.2-4.8 4.8-4.8 2.6 0 4.7 2.1 4.7 4.8 0 2.6-2.1 4.7-4.7 4.7z"/>
	<path id="        TEA" fill-rule="evenodd" class="s10" d="m480.3 140q-2.3 2.4-6.4 2.4-4 0-6.5-2.4-2.4-2.4-2.4-6.6v-42.1h-7.5q-4.1 0-6.6-2.1-2.3-2.2-2.3-6.1 0-4 2.3-6.1 2.5-2.2 6.6-2.2h32.9q4.1 0 6.4 2.2 2.5 2.1 2.5 6.1 0 3.9-2.5 6.1-2.3 2.1-6.4 2.1h-7.6v42.1q0 4.2-2.5 6.6zm54.7 1.9h-24.8q-3.3 0-5.8-2.5-2.6-2.7-2.6-6.1v-49.7q0-3.7 2.6-6.1 2.5-2.7 5.8-2.7h24.3q3.6 0 5.9 2.3 2.5 2.3 2.5 6 0 3.9-2.3 6.1-2.3 2.1-6.1 2.1h-15v8.5h13.5q3.8 0 6.1 2.3 2.5 2.1 2.5 5.9 0 4-2.5 6.1-2.1 2.3-6.1 2.3h-13.4v8.9h15.2q4 0 6.3 2.2 2.3 2.1 2.3 6.1 0 3.8-2.3 5.9-2.3 2.4-6.1 2.4zm19.1 0.5q-3.9 0-6.2-2-2.4-2-2.4-5.5 0-3.9 2.4-9.7l15.3-41.3q4-10.9 12.9-10.9 8.6 0 12.7 10.9l15.2 40.1q2.5 7.3 2.5 10.9 0 3.5-2.3 5.5-2.2 2-6.1 2-3.8 0-6-2.2-2.1-2.1-3.3-6.3l-1.5-4.4h-22.8l-1 3.9q-1.6 5.2-3.8 7.1-2.1 1.9-5.6 1.9zm22.3-49.9l-6.6 20.5h12.6l-5.8-20.5z"/>
	<path id="CRAF" class="s11" d="m280.4 143.7q-14.9 0-24.2-9.9-9.2-9.9-9.2-25.3 0-15.9 9.6-25.6 9.6-9.9 25.1-9.9 8.9 0 14.2 2.6 5.9 3 5.9 8.6 0 3.5-2.3 6-2.1 2.4-5.4 2.4-2.4 0-4.3-0.8-4.7-1.5-7.8-1.5-7.6 0-11.7 4.8-4.1 4.8-4.1 12.9 0 7.9 3.8 12.7 3.8 5 10 5 2.3 0 4.2-0.4 1.8-0.1 3.3-0.6 1.4-0.5 1.9-0.5 3.8-1 4.7-1 3.8 0 5.9 2.3 2 2.2 2 6 0 6.1-6.5 9.2-5.6 3-15.1 3z"/>
	<path id="CRAF" fill-rule="evenodd" class="s10" d="m314.4 142.4q-4 0-6.5-2.4-2.4-2.4-2.4-6.6v-49.8q0-3.7 2.6-6.1 2.5-2.7 5.9-2.7h19.7q10.2 0 16.5 6 6.4 5.7 6.4 15.6 0 6.2-3.3 11.1-3.1 5-9.5 7.1l-0.7 0.2 10.7 11.7q3.8 4.1 3.8 7.6 0 3.3-2.6 5.8-2.5 2.5-6.9 2.5-5 0-9-5.5l-15.6-21h-0.2v17.5q0 4.2-2.5 6.6-2.5 2.4-6.4 2.4zm8.9-51.1v11.8h9.7q2.7 0 4.2-1.9 1.6-1.6 1.6-4.3 0-2.6-1.8-4.1-1.7-1.5-4-1.5zm44.4 51.1q-3.9 0-6.2-2-2.2-2-2.2-5.5 0-3.9 2.2-9.7l15.5-41.3q4-10.9 12.9-10.9 8.6 0 12.7 10.9l15 40.1q2.5 7.3 2.5 10.9 0 3.5-2.2 5.5-2.3 2-6.1 2-3.9 0-6.1-2.2-2-2.1-3.3-6.3l-1.3-4.4h-22.8l-1.1 3.9q-1.5 5.2-3.7 7.1-2.3 1.9-5.8 1.9zm22.3-49.9l-6.4 20.5h12.4l-5.8-20.5zm42.3 49.9q-4.2 0-6.5-2.4-2.4-2.4-2.4-6.6v-50q0-3.6 2.4-5.9 2.7-2.7 6-2.7h23.9q3.8 0 6.1 2.3 2.3 2.3 2.3 6 0 3.9-2.3 6.1-2.3 2.1-6.1 2.1h-14.5v8.3h12.7q3.8 0 6.1 2.1 2.3 2.2 2.3 6.1 0 3.8-2.3 6.2-2.3 2.1-6.1 2.1h-12.7v17.3q0 4.2-2.5 6.6-2.5 2.4-6.4 2.4z"/>
</svg>